# xmcd
#
# Track frame offsets:
#	150
#	19997
#	40902
#	55762
#	76312
#	105132
#	122435
#	138262
#	160320
#	176612
#	194767
#	221325
#	239072
#	258045
#
# Disc length: 3681 seconds
#
# Revision: 4
# Processed by: cddbd v1.5.2PL0 Copyright (c) Steve Scherf et al.
# Submitted via: audiograbber 1.83.01
#
DISCID=b70e5f0e
DTITLE=Joanna - Joanna em oração
DYEAR=2002
DGENRE=Católica
TTITLE0=Viva a mãe de Deus e nossa
TTITLE1=Oração pela família
TTITLE2=Mãezinha do céu
TTITLE3=Nós queremos paz
TTITLE4=Ave Maria (F. Schubert)
TTITLE5=Maria de Nazaré
TTITLE6=Treze de maio
TTITLE7=Vós sois o lírio mimoso
TTITLE8=Muxima
TTITLE9=Canção para Santa Paulina
TTITLE10=Nossa Senhora
TTITLE11=Oração de São Francisco
TTITLE12=Romaria
TTITLE13=A Padroeira
EXTD=
EXTT0=
EXTT1=
EXTT2=
EXTT3=
EXTT4=
EXTT5=
EXTT6=
EXTT7=
EXTT8=
EXTT9=
EXTT10=
EXTT11=
EXTT12=
EXTT13=
PLAYORDER=
